<?xml version="1.0" encoding="UTF-8" standalone="no"?>
<!-- Created with Inkscape (http://www.inkscape.org/) -->

<svg
   width="210mm"
   height="297mm"
   viewBox="0 0 210 297"
   version="1.1"
   id="svg5"
   sodipodi:docname="W_adiabatic.svg"
   inkscape:version="1.2.2 (b0a8486541, 2022-12-01)"
   xmlns:inkscape="http://www.inkscape.org/namespaces/inkscape"
   xmlns:sodipodi="http://sodipodi.sourceforge.net/DTD/sodipodi-0.dtd"
   xmlns="http://www.w3.org/2000/svg"
   xmlns:svg="http://www.w3.org/2000/svg">
  <sodipodi:namedview
     id="namedview111"
     pagecolor="#ffffff"
     bordercolor="#000000"
     borderopacity="0.25"
     inkscape:showpageshadow="2"
     inkscape:pageopacity="0.0"
     inkscape:pagecheckerboard="0"
     inkscape:deskcolor="#d1d1d1"
     inkscape:document-units="mm"
     showgrid="false"
     inkscape:zoom="2.1115193"
     inkscape:cx="293.15384"
     inkscape:cy="408.23686"
     inkscape:window-width="1920"
     inkscape:window-height="1012"
     inkscape:window-x="0"
     inkscape:window-y="0"
     inkscape:window-maximized="1"
     inkscape:current-layer="svg5" />
  <defs
     id="defs2" />
  <circle
     style="fill:#3296ff;fill-opacity:1;stroke:#640032;stroke-width:3;stroke-linecap:round;stroke-miterlimit:0;stroke-dasharray:none;stroke-opacity:1"
     id="path5800-3"
     cx="100.57224"
     cy="91.912193"
     r="28.313526" />
  <g
     id="blades"
     transform="translate(58.560421,-3.7455229)">
    <circle
       style="fill:#646464;fill-opacity:1;stroke:#323232;stroke-width:1;stroke-linecap:round;stroke-miterlimit:0;stroke-dasharray:none;stroke-opacity:1"
       id="path8601-7"
       cx="42.038895"
       cy="95.65477"
       r="2.0673883" />
    <g
       id="g10217-5">
      <g
         id="g10140-3">
        <path
           style="fill:#646464;fill-opacity:0.5;stroke:#323232;stroke-width:1;stroke-linecap:round;stroke-miterlimit:0;stroke-dasharray:none;stroke-opacity:1"
           d="M 41.057472,93.609632 32.109084,79.562692"
           id="path10109-56" />
        <path
           style="fill:none;fill-opacity:0.5;stroke:#323232;stroke-width:1;stroke-linecap:round;stroke-miterlimit:0;stroke-dasharray:none;stroke-opacity:1"
           d="m 39.890218,94.885154 c 0,0 -8.959473,-3.207198 -10.228742,-6.51679 -1.269269,-3.309592 2.447608,-8.805672 2.447608,-8.805672"
           id="path10109-5-29" />
      </g>
      <path
         style="fill:#646464;fill-opacity:1;stroke:#323232;stroke-width:0.452894;stroke-linecap:round;stroke-miterlimit:0;stroke-dasharray:none;stroke-opacity:1"
         d="m 147.32419,355.17668 c -17.55296,-7.07113 -29.62163,-14.73284 -32.88245,-20.87521 -2.32779,-4.38482 -1.66084,-11.30554 1.92473,-19.97226 1.46271,-3.53554 4.89917,-10.16219 5.09231,-9.81971 0.0476,0.0844 7.12797,11.20633 15.73417,24.71543 l 15.64765,24.56201 -0.82481,0.84155 c -0.45365,0.46285 -0.98137,1.06296 -1.17271,1.33358 l -0.34789,0.49203 z"
         id="path10211-1"
         transform="scale(0.26458333)" />
    </g>
    <g
       id="g10217-1-2"
       transform="rotate(180,42.011816,95.657719)">
      <g
         id="g10140-1-7">
        <path
           style="fill:#646464;fill-opacity:0.5;stroke:#323232;stroke-width:1;stroke-linecap:round;stroke-miterlimit:0;stroke-dasharray:none;stroke-opacity:1"
           d="M 41.057472,93.609632 32.109084,79.562692"
           id="path10109-59-0" />
        <path
           style="fill:none;fill-opacity:0.5;stroke:#323232;stroke-width:1;stroke-linecap:round;stroke-miterlimit:0;stroke-dasharray:none;stroke-opacity:1"
           d="m 39.890218,94.885154 c 0,0 -8.959473,-3.207198 -10.228742,-6.51679 -1.269269,-3.309592 2.447608,-8.805672 2.447608,-8.805672"
           id="path10109-5-8-9" />
      </g>
      <path
         style="fill:#646464;fill-opacity:1;stroke:#323232;stroke-width:0.452894;stroke-linecap:round;stroke-miterlimit:0;stroke-dasharray:none;stroke-opacity:1"
         d="m 147.32419,355.17668 c -17.55296,-7.07113 -29.62163,-14.73284 -32.88245,-20.87521 -2.32779,-4.38482 -1.66084,-11.30554 1.92473,-19.97226 1.46271,-3.53554 4.89917,-10.16219 5.09231,-9.81971 0.0476,0.0844 7.12797,11.20633 15.73417,24.71543 l 15.64765,24.56201 -0.82481,0.84155 c -0.45365,0.46285 -0.98137,1.06296 -1.17271,1.33358 l -0.34789,0.49203 z"
         id="path10211-4-3"
         transform="scale(0.26458333)" />
    </g>
  </g>
  <circle
     style="fill:#3296ff;fill-opacity:0.5;stroke:none;stroke-width:0.791439;stroke-linecap:round;stroke-miterlimit:0"
     id="path483-60-2"
     cx="100.57224"
     cy="91.912193"
     r="23.434507" />
  <g
     id="ice-cubes"
     transform="translate(-18.636745,-67.878565)">
    <g
       id="g10488-85-62"
       transform="translate(90.096721,127.95138)"
       style="fill:#96ffff;fill-opacity:1;stroke-width:0.35;stroke-dasharray:none">
      <g
         id="g10389-1-0-61"
         transform="matrix(1,0,0,-1,-0.00604687,30.656438)"
         style="fill:#96ffff;fill-opacity:1;stroke-width:0.35;stroke-dasharray:none">
        <rect
           style="fill:#96ffff;fill-opacity:1;stroke:#0000ff;stroke-width:0.360408;stroke-linecap:round;stroke-miterlimit:0;stroke-dasharray:none;stroke-opacity:1"
           id="rect10358-0-6-8"
           width="2.292069"
           height="2.1615934"
           x="27.347635"
           y="5.1838889"
           rx="0.60647917"
           ry="0.57195556"
           transform="matrix(0.94307531,0.33257925,0,1,0,0)" />
        <rect
           style="fill:#96ffff;fill-opacity:1;stroke:#0000ff;stroke-width:0.360408;stroke-linecap:round;stroke-miterlimit:0;stroke-dasharray:none;stroke-opacity:1"
           id="rect10358-8-3-4-79"
           width="2.292069"
           height="2.1615934"
           x="-31.93078"
           y="24.898661"
           rx="0.60647917"
           ry="0.57195556"
           transform="matrix(-0.94307531,0.33257925,0,1,0,0)" />
      </g>
      <rect
         style="fill:#96ffff;fill-opacity:1;stroke:#0000ff;stroke-width:0.438276;stroke-linecap:round;stroke-miterlimit:0;stroke-dasharray:none;stroke-opacity:1"
         id="rect10358-4-6-20"
         width="2.4156749"
         height="2.2887909"
         x="37.781296"
         y="-10.358944"
         rx="0.63918513"
         ry="0.60561198"
         transform="matrix(0.93965784,0.34211569,0.9419563,-0.3357355,0,0)" />
      <rect
         style="fill:#96ffff;fill-opacity:1;stroke:#0000ff;stroke-width:0.438276;stroke-linecap:round;stroke-miterlimit:0;stroke-dasharray:none;stroke-opacity:1"
         id="rect10358-4-4-25-23"
         width="2.4156749"
         height="2.2887909"
         x="34.594696"
         y="-7.2273736"
         rx="0.63918513"
         ry="0.60561198"
         transform="matrix(0.93965784,0.34211569,0.9419563,-0.3357355,0,0)" />
      <g
         id="g10389-86-7"
         style="fill:#96ffff;fill-opacity:1;stroke-width:0.35;stroke-dasharray:none">
        <rect
           style="fill:#96ffff;fill-opacity:1;stroke:#0000ff;stroke-width:0.360408;stroke-linecap:round;stroke-miterlimit:0;stroke-dasharray:none;stroke-opacity:1"
           id="rect10358-2-59"
           width="2.292069"
           height="2.1615934"
           x="27.347635"
           y="5.1838889"
           rx="0.60647917"
           ry="0.57195556"
           transform="matrix(0.94307531,0.33257925,0,1,0,0)" />
        <rect
           style="fill:#96ffff;fill-opacity:1;stroke:#0000ff;stroke-width:0.360408;stroke-linecap:round;stroke-miterlimit:0;stroke-dasharray:none;stroke-opacity:1"
           id="rect10358-8-8-228"
           width="2.292069"
           height="2.1615934"
           x="-31.93078"
           y="24.898661"
           rx="0.60647917"
           ry="0.57195556"
           transform="matrix(-0.94307531,0.33257925,0,1,0,0)" />
      </g>
    </g>
    <g
       id="g10488-85-0-9"
       transform="translate(102.7694,131.46348)"
       style="fill:#96ffff;fill-opacity:1;stroke-width:0.35;stroke-dasharray:none">
      <g
         id="g10389-1-0-7-7"
         transform="matrix(1,0,0,-1,-0.00604687,30.656438)"
         style="fill:#96ffff;fill-opacity:1;stroke-width:0.35;stroke-dasharray:none">
        <rect
           style="fill:#96ffff;fill-opacity:1;stroke:#0000ff;stroke-width:0.360408;stroke-linecap:round;stroke-miterlimit:0;stroke-dasharray:none;stroke-opacity:1"
           id="rect10358-0-6-5-3"
           width="2.292069"
           height="2.1615934"
           x="27.347635"
           y="5.1838889"
           rx="0.60647917"
           ry="0.57195556"
           transform="matrix(0.94307531,0.33257925,0,1,0,0)" />
        <rect
           style="fill:#96ffff;fill-opacity:1;stroke:#0000ff;stroke-width:0.360408;stroke-linecap:round;stroke-miterlimit:0;stroke-dasharray:none;stroke-opacity:1"
           id="rect10358-8-3-4-8-6"
           width="2.292069"
           height="2.1615934"
           x="-31.93078"
           y="24.898661"
           rx="0.60647917"
           ry="0.57195556"
           transform="matrix(-0.94307531,0.33257925,0,1,0,0)" />
      </g>
      <rect
         style="fill:#96ffff;fill-opacity:1;stroke:#0000ff;stroke-width:0.438276;stroke-linecap:round;stroke-miterlimit:0;stroke-dasharray:none;stroke-opacity:1"
         id="rect10358-4-6-7-1"
         width="2.4156749"
         height="2.2887909"
         x="37.781296"
         y="-10.358944"
         rx="0.63918513"
         ry="0.60561198"
         transform="matrix(0.93965784,0.34211569,0.9419563,-0.3357355,0,0)" />
      <rect
         style="fill:#96ffff;fill-opacity:1;stroke:#0000ff;stroke-width:0.438276;stroke-linecap:round;stroke-miterlimit:0;stroke-dasharray:none;stroke-opacity:1"
         id="rect10358-4-4-25-0-2"
         width="2.4156749"
         height="2.2887909"
         x="34.594696"
         y="-7.2273736"
         rx="0.63918513"
         ry="0.60561198"
         transform="matrix(0.93965784,0.34211569,0.9419563,-0.3357355,0,0)" />
      <g
         id="g10389-86-4-9"
         style="fill:#96ffff;fill-opacity:1;stroke-width:0.35;stroke-dasharray:none">
        <rect
           style="fill:#96ffff;fill-opacity:1;stroke:#0000ff;stroke-width:0.360408;stroke-linecap:round;stroke-miterlimit:0;stroke-dasharray:none;stroke-opacity:1"
           id="rect10358-2-8-3"
           width="2.292069"
           height="2.1615934"
           x="27.347635"
           y="5.1838889"
           rx="0.60647917"
           ry="0.57195556"
           transform="matrix(0.94307531,0.33257925,0,1,0,0)" />
        <rect
           style="fill:#96ffff;fill-opacity:1;stroke:#0000ff;stroke-width:0.360408;stroke-linecap:round;stroke-miterlimit:0;stroke-dasharray:none;stroke-opacity:1"
           id="rect10358-8-8-0-1"
           width="2.292069"
           height="2.1615934"
           x="-31.93078"
           y="24.898661"
           rx="0.60647917"
           ry="0.57195556"
           transform="matrix(-0.94307531,0.33257925,0,1,0,0)" />
      </g>
    </g>
    <g
       id="g10488-85-4-9"
       transform="translate(114.65133,139.19613)"
       style="fill:#96ffff;fill-opacity:1;stroke-width:0.35;stroke-dasharray:none">
      <g
         id="g10389-1-0-2-4"
         transform="matrix(1,0,0,-1,-0.00604687,30.656438)"
         style="fill:#96ffff;fill-opacity:1;stroke-width:0.35;stroke-dasharray:none">
        <rect
           style="fill:#96ffff;fill-opacity:1;stroke:#0000ff;stroke-width:0.360408;stroke-linecap:round;stroke-miterlimit:0;stroke-dasharray:none;stroke-opacity:1"
           id="rect10358-0-6-9-7"
           width="2.292069"
           height="2.1615934"
           x="27.347635"
           y="5.1838889"
           rx="0.60647917"
           ry="0.57195556"
           transform="matrix(0.94307531,0.33257925,0,1,0,0)" />
        <rect
           style="fill:#96ffff;fill-opacity:1;stroke:#0000ff;stroke-width:0.360408;stroke-linecap:round;stroke-miterlimit:0;stroke-dasharray:none;stroke-opacity:1"
           id="rect10358-8-3-4-6-8"
           width="2.292069"
           height="2.1615934"
           x="-31.93078"
           y="24.898661"
           rx="0.60647917"
           ry="0.57195556"
           transform="matrix(-0.94307531,0.33257925,0,1,0,0)" />
      </g>
      <rect
         style="fill:#96ffff;fill-opacity:1;stroke:#0000ff;stroke-width:0.438276;stroke-linecap:round;stroke-miterlimit:0;stroke-dasharray:none;stroke-opacity:1"
         id="rect10358-4-6-1-4"
         width="2.4156749"
         height="2.2887909"
         x="37.781296"
         y="-10.358944"
         rx="0.63918513"
         ry="0.60561198"
         transform="matrix(0.93965784,0.34211569,0.9419563,-0.3357355,0,0)" />
      <rect
         style="fill:#96ffff;fill-opacity:1;stroke:#0000ff;stroke-width:0.438276;stroke-linecap:round;stroke-miterlimit:0;stroke-dasharray:none;stroke-opacity:1"
         id="rect10358-4-4-25-04-5"
         width="2.4156749"
         height="2.2887909"
         x="34.594696"
         y="-7.2273736"
         rx="0.63918513"
         ry="0.60561198"
         transform="matrix(0.93965784,0.34211569,0.9419563,-0.3357355,0,0)" />
      <g
         id="g10389-86-2-0"
         style="fill:#96ffff;fill-opacity:1;stroke-width:0.35;stroke-dasharray:none">
        <rect
           style="fill:#96ffff;fill-opacity:1;stroke:#0000ff;stroke-width:0.360408;stroke-linecap:round;stroke-miterlimit:0;stroke-dasharray:none;stroke-opacity:1"
           id="rect10358-2-2-3"
           width="2.292069"
           height="2.1615934"
           x="27.347635"
           y="5.1838889"
           rx="0.60647917"
           ry="0.57195556"
           transform="matrix(0.94307531,0.33257925,0,1,0,0)" />
        <rect
           style="fill:#96ffff;fill-opacity:1;stroke:#0000ff;stroke-width:0.360408;stroke-linecap:round;stroke-miterlimit:0;stroke-dasharray:none;stroke-opacity:1"
           id="rect10358-8-8-2-6"
           width="2.292069"
           height="2.1615934"
           x="-31.93078"
           y="24.898661"
           rx="0.60647917"
           ry="0.57195556"
           transform="matrix(-0.94307531,0.33257925,0,1,0,0)" />
      </g>
    </g>
    <g
       id="g10488-85-05-1"
       transform="translate(94.840535,137.89818)"
       style="fill:#96ffff;fill-opacity:1;stroke-width:0.35;stroke-dasharray:none">
      <g
         id="g10389-1-0-5-0"
         transform="matrix(1,0,0,-1,-0.00604687,30.656438)"
         style="fill:#96ffff;fill-opacity:1;stroke-width:0.35;stroke-dasharray:none">
        <rect
           style="fill:#96ffff;fill-opacity:1;stroke:#0000ff;stroke-width:0.360408;stroke-linecap:round;stroke-miterlimit:0;stroke-dasharray:none;stroke-opacity:1"
           id="rect10358-0-6-2-6"
           width="2.292069"
           height="2.1615934"
           x="27.347635"
           y="5.1838889"
           rx="0.60647917"
           ry="0.57195556"
           transform="matrix(0.94307531,0.33257925,0,1,0,0)" />
        <rect
           style="fill:#96ffff;fill-opacity:1;stroke:#0000ff;stroke-width:0.360408;stroke-linecap:round;stroke-miterlimit:0;stroke-dasharray:none;stroke-opacity:1"
           id="rect10358-8-3-4-9-3"
           width="2.292069"
           height="2.1615934"
           x="-31.93078"
           y="24.898661"
           rx="0.60647917"
           ry="0.57195556"
           transform="matrix(-0.94307531,0.33257925,0,1,0,0)" />
      </g>
      <rect
         style="fill:#96ffff;fill-opacity:1;stroke:#0000ff;stroke-width:0.438276;stroke-linecap:round;stroke-miterlimit:0;stroke-dasharray:none;stroke-opacity:1"
         id="rect10358-4-6-0-2"
         width="2.4156749"
         height="2.2887909"
         x="37.781296"
         y="-10.358944"
         rx="0.63918513"
         ry="0.60561198"
         transform="matrix(0.93965784,0.34211569,0.9419563,-0.3357355,0,0)" />
      <rect
         style="fill:#96ffff;fill-opacity:1;stroke:#0000ff;stroke-width:0.438276;stroke-linecap:round;stroke-miterlimit:0;stroke-dasharray:none;stroke-opacity:1"
         id="rect10358-4-4-25-2-0"
         width="2.4156749"
         height="2.2887909"
         x="34.594696"
         y="-7.2273736"
         rx="0.63918513"
         ry="0.60561198"
         transform="matrix(0.93965784,0.34211569,0.9419563,-0.3357355,0,0)" />
      <g
         id="g10389-86-8-6"
         style="fill:#96ffff;fill-opacity:1;stroke-width:0.35;stroke-dasharray:none">
        <rect
           style="fill:#96ffff;fill-opacity:1;stroke:#0000ff;stroke-width:0.360408;stroke-linecap:round;stroke-miterlimit:0;stroke-dasharray:none;stroke-opacity:1"
           id="rect10358-2-3-1"
           width="2.292069"
           height="2.1615934"
           x="27.347635"
           y="5.1838889"
           rx="0.60647917"
           ry="0.57195556"
           transform="matrix(0.94307531,0.33257925,0,1,0,0)" />
        <rect
           style="fill:#96ffff;fill-opacity:1;stroke:#0000ff;stroke-width:0.360408;stroke-linecap:round;stroke-miterlimit:0;stroke-dasharray:none;stroke-opacity:1"
           id="rect10358-8-8-8-5"
           width="2.292069"
           height="2.1615934"
           x="-31.93078"
           y="24.898661"
           rx="0.60647917"
           ry="0.57195556"
           transform="matrix(-0.94307531,0.33257925,0,1,0,0)" />
      </g>
    </g>
    <g
       id="g10488-85-04-5"
       transform="translate(68.306035,141.44868)"
       style="fill:#96ffff;fill-opacity:1;stroke-width:0.35;stroke-dasharray:none">
      <g
         id="g10389-1-0-0-4"
         transform="matrix(1,0,0,-1,-0.00604687,30.656438)"
         style="fill:#96ffff;fill-opacity:1;stroke-width:0.35;stroke-dasharray:none">
        <rect
           style="fill:#96ffff;fill-opacity:1;stroke:#0000ff;stroke-width:0.360408;stroke-linecap:round;stroke-miterlimit:0;stroke-dasharray:none;stroke-opacity:1"
           id="rect10358-0-6-91-7"
           width="2.292069"
           height="2.1615934"
           x="27.347635"
           y="5.1838889"
           rx="0.60647917"
           ry="0.57195556"
           transform="matrix(0.94307531,0.33257925,0,1,0,0)" />
        <rect
           style="fill:#96ffff;fill-opacity:1;stroke:#0000ff;stroke-width:0.360408;stroke-linecap:round;stroke-miterlimit:0;stroke-dasharray:none;stroke-opacity:1"
           id="rect10358-8-3-4-96-6"
           width="2.292069"
           height="2.1615934"
           x="-31.93078"
           y="24.898661"
           rx="0.60647917"
           ry="0.57195556"
           transform="matrix(-0.94307531,0.33257925,0,1,0,0)" />
      </g>
      <rect
         style="fill:#96ffff;fill-opacity:1;stroke:#0000ff;stroke-width:0.438276;stroke-linecap:round;stroke-miterlimit:0;stroke-dasharray:none;stroke-opacity:1"
         id="rect10358-4-6-2-5"
         width="2.4156749"
         height="2.2887909"
         x="37.781296"
         y="-10.358944"
         rx="0.63918513"
         ry="0.60561198"
         transform="matrix(0.93965784,0.34211569,0.9419563,-0.3357355,0,0)" />
      <rect
         style="fill:#96ffff;fill-opacity:1;stroke:#0000ff;stroke-width:0.438276;stroke-linecap:round;stroke-miterlimit:0;stroke-dasharray:none;stroke-opacity:1"
         id="rect10358-4-4-25-5-6"
         width="2.4156749"
         height="2.2887909"
         x="34.594696"
         y="-7.2273736"
         rx="0.63918513"
         ry="0.60561198"
         transform="matrix(0.93965784,0.34211569,0.9419563,-0.3357355,0,0)" />
      <g
         id="g10389-86-44-9"
         style="fill:#96ffff;fill-opacity:1;stroke-width:0.35;stroke-dasharray:none">
        <rect
           style="fill:#96ffff;fill-opacity:1;stroke:#0000ff;stroke-width:0.360408;stroke-linecap:round;stroke-miterlimit:0;stroke-dasharray:none;stroke-opacity:1"
           id="rect10358-2-9-3"
           width="2.292069"
           height="2.1615934"
           x="27.347635"
           y="5.1838889"
           rx="0.60647917"
           ry="0.57195556"
           transform="matrix(0.94307531,0.33257925,0,1,0,0)" />
        <rect
           style="fill:#96ffff;fill-opacity:1;stroke:#0000ff;stroke-width:0.360408;stroke-linecap:round;stroke-miterlimit:0;stroke-dasharray:none;stroke-opacity:1"
           id="rect10358-8-8-9-7"
           width="2.292069"
           height="2.1615934"
           x="-31.93078"
           y="24.898661"
           rx="0.60647917"
           ry="0.57195556"
           transform="matrix(-0.94307531,0.33257925,0,1,0,0)" />
      </g>
    </g>
    <g
       id="g10488-85-3-4"
       transform="translate(77.359352,154.54045)"
       style="fill:#96ffff;fill-opacity:1;stroke-width:0.35;stroke-dasharray:none">
      <g
         id="g10389-1-0-6-5"
         transform="matrix(1,0,0,-1,-0.00604687,30.656438)"
         style="fill:#96ffff;fill-opacity:1;stroke-width:0.35;stroke-dasharray:none">
        <rect
           style="fill:#96ffff;fill-opacity:1;stroke:#0000ff;stroke-width:0.360408;stroke-linecap:round;stroke-miterlimit:0;stroke-dasharray:none;stroke-opacity:1"
           id="rect10358-0-6-0-2"
           width="2.292069"
           height="2.1615934"
           x="27.347635"
           y="5.1838889"
           rx="0.60647917"
           ry="0.57195556"
           transform="matrix(0.94307531,0.33257925,0,1,0,0)" />
        <rect
           style="fill:#96ffff;fill-opacity:1;stroke:#0000ff;stroke-width:0.360408;stroke-linecap:round;stroke-miterlimit:0;stroke-dasharray:none;stroke-opacity:1"
           id="rect10358-8-3-4-5-5"
           width="2.292069"
           height="2.1615934"
           x="-31.93078"
           y="24.898661"
           rx="0.60647917"
           ry="0.57195556"
           transform="matrix(-0.94307531,0.33257925,0,1,0,0)" />
      </g>
      <rect
         style="fill:#96ffff;fill-opacity:1;stroke:#0000ff;stroke-width:0.438276;stroke-linecap:round;stroke-miterlimit:0;stroke-dasharray:none;stroke-opacity:1"
         id="rect10358-4-6-02-4"
         width="2.4156749"
         height="2.2887909"
         x="37.781296"
         y="-10.358944"
         rx="0.63918513"
         ry="0.60561198"
         transform="matrix(0.93965784,0.34211569,0.9419563,-0.3357355,0,0)" />
      <rect
         style="fill:#96ffff;fill-opacity:1;stroke:#0000ff;stroke-width:0.438276;stroke-linecap:round;stroke-miterlimit:0;stroke-dasharray:none;stroke-opacity:1"
         id="rect10358-4-4-25-9-7"
         width="2.4156749"
         height="2.2887909"
         x="34.594696"
         y="-7.2273736"
         rx="0.63918513"
         ry="0.60561198"
         transform="matrix(0.93965784,0.34211569,0.9419563,-0.3357355,0,0)" />
      <g
         id="g10389-86-43-4"
         style="fill:#96ffff;fill-opacity:1;stroke-width:0.35;stroke-dasharray:none">
        <rect
           style="fill:#96ffff;fill-opacity:1;stroke:#0000ff;stroke-width:0.360408;stroke-linecap:round;stroke-miterlimit:0;stroke-dasharray:none;stroke-opacity:1"
           id="rect10358-2-5-4"
           width="2.292069"
           height="2.1615934"
           x="27.347635"
           y="5.1838889"
           rx="0.60647917"
           ry="0.57195556"
           transform="matrix(0.94307531,0.33257925,0,1,0,0)" />
        <rect
           style="fill:#96ffff;fill-opacity:1;stroke:#0000ff;stroke-width:0.360408;stroke-linecap:round;stroke-miterlimit:0;stroke-dasharray:none;stroke-opacity:1"
           id="rect10358-8-8-1-3"
           width="2.292069"
           height="2.1615934"
           x="-31.93078"
           y="24.898661"
           rx="0.60647917"
           ry="0.57195556"
           transform="matrix(-0.94307531,0.33257925,0,1,0,0)" />
      </g>
    </g>
    <g
       id="g10488-85-7-0"
       transform="translate(87.361642,152.66136)"
       style="fill:#96ffff;fill-opacity:1;stroke-width:0.35;stroke-dasharray:none">
      <g
         id="g10389-1-0-4-7"
         transform="matrix(1,0,0,-1,-0.00604687,30.656438)"
         style="fill:#96ffff;fill-opacity:1;stroke-width:0.35;stroke-dasharray:none">
        <rect
           style="fill:#96ffff;fill-opacity:1;stroke:#0000ff;stroke-width:0.360408;stroke-linecap:round;stroke-miterlimit:0;stroke-dasharray:none;stroke-opacity:1"
           id="rect10358-0-6-3-8"
           width="2.292069"
           height="2.1615934"
           x="27.347635"
           y="5.1838889"
           rx="0.60647917"
           ry="0.57195556"
           transform="matrix(0.94307531,0.33257925,0,1,0,0)" />
        <rect
           style="fill:#96ffff;fill-opacity:1;stroke:#0000ff;stroke-width:0.360408;stroke-linecap:round;stroke-miterlimit:0;stroke-dasharray:none;stroke-opacity:1"
           id="rect10358-8-3-4-1-6"
           width="2.292069"
           height="2.1615934"
           x="-31.93078"
           y="24.898661"
           rx="0.60647917"
           ry="0.57195556"
           transform="matrix(-0.94307531,0.33257925,0,1,0,0)" />
      </g>
      <rect
         style="fill:#96ffff;fill-opacity:1;stroke:#0000ff;stroke-width:0.438276;stroke-linecap:round;stroke-miterlimit:0;stroke-dasharray:none;stroke-opacity:1"
         id="rect10358-4-6-4-8"
         width="2.4156749"
         height="2.2887909"
         x="37.781296"
         y="-10.358944"
         rx="0.63918513"
         ry="0.60561198"
         transform="matrix(0.93965784,0.34211569,0.9419563,-0.3357355,0,0)" />
      <rect
         style="fill:#96ffff;fill-opacity:1;stroke:#0000ff;stroke-width:0.438276;stroke-linecap:round;stroke-miterlimit:0;stroke-dasharray:none;stroke-opacity:1"
         id="rect10358-4-4-25-6-8"
         width="2.4156749"
         height="2.2887909"
         x="34.594696"
         y="-7.2273736"
         rx="0.63918513"
         ry="0.60561198"
         transform="matrix(0.93965784,0.34211569,0.9419563,-0.3357355,0,0)" />
      <g
         id="g10389-86-9-4"
         style="fill:#96ffff;fill-opacity:1;stroke-width:0.35;stroke-dasharray:none">
        <rect
           style="fill:#96ffff;fill-opacity:1;stroke:#0000ff;stroke-width:0.360408;stroke-linecap:round;stroke-miterlimit:0;stroke-dasharray:none;stroke-opacity:1"
           id="rect10358-2-4-3"
           width="2.292069"
           height="2.1615934"
           x="27.347635"
           y="5.1838889"
           rx="0.60647917"
           ry="0.57195556"
           transform="matrix(0.94307531,0.33257925,0,1,0,0)" />
        <rect
           style="fill:#96ffff;fill-opacity:1;stroke:#0000ff;stroke-width:0.360408;stroke-linecap:round;stroke-miterlimit:0;stroke-dasharray:none;stroke-opacity:1"
           id="rect10358-8-8-22-1"
           width="2.292069"
           height="2.1615934"
           x="-31.93078"
           y="24.898661"
           rx="0.60647917"
           ry="0.57195556"
           transform="matrix(-0.94307531,0.33257925,0,1,0,0)" />
      </g>
    </g>
    <g
       id="g10488-85-6-4"
       transform="translate(95.649268,165.91879)"
       style="fill:#96ffff;fill-opacity:1;stroke-width:0.35;stroke-dasharray:none">
      <g
         id="g10389-1-0-41-9"
         transform="matrix(1,0,0,-1,-0.00604687,30.656438)"
         style="fill:#96ffff;fill-opacity:1;stroke-width:0.35;stroke-dasharray:none">
        <rect
           style="fill:#96ffff;fill-opacity:1;stroke:#0000ff;stroke-width:0.360408;stroke-linecap:round;stroke-miterlimit:0;stroke-dasharray:none;stroke-opacity:1"
           id="rect10358-0-6-28-2"
           width="2.292069"
           height="2.1615934"
           x="27.347635"
           y="5.1838889"
           rx="0.60647917"
           ry="0.57195556"
           transform="matrix(0.94307531,0.33257925,0,1,0,0)" />
        <rect
           style="fill:#96ffff;fill-opacity:1;stroke:#0000ff;stroke-width:0.360408;stroke-linecap:round;stroke-miterlimit:0;stroke-dasharray:none;stroke-opacity:1"
           id="rect10358-8-3-4-89-0"
           width="2.292069"
           height="2.1615934"
           x="-31.93078"
           y="24.898661"
           rx="0.60647917"
           ry="0.57195556"
           transform="matrix(-0.94307531,0.33257925,0,1,0,0)" />
      </g>
      <rect
         style="fill:#96ffff;fill-opacity:1;stroke:#0000ff;stroke-width:0.438276;stroke-linecap:round;stroke-miterlimit:0;stroke-dasharray:none;stroke-opacity:1"
         id="rect10358-4-6-28-6"
         width="2.4156749"
         height="2.2887909"
         x="37.781296"
         y="-10.358944"
         rx="0.63918513"
         ry="0.60561198"
         transform="matrix(0.93965784,0.34211569,0.9419563,-0.3357355,0,0)" />
      <rect
         style="fill:#96ffff;fill-opacity:1;stroke:#0000ff;stroke-width:0.438276;stroke-linecap:round;stroke-miterlimit:0;stroke-dasharray:none;stroke-opacity:1"
         id="rect10358-4-4-25-8-8"
         width="2.4156749"
         height="2.2887909"
         x="34.594696"
         y="-7.2273736"
         rx="0.63918513"
         ry="0.60561198"
         transform="matrix(0.93965784,0.34211569,0.9419563,-0.3357355,0,0)" />
      <g
         id="g10389-86-86-9"
         style="fill:#96ffff;fill-opacity:1;stroke-width:0.35;stroke-dasharray:none">
        <rect
           style="fill:#96ffff;fill-opacity:1;stroke:#0000ff;stroke-width:0.360408;stroke-linecap:round;stroke-miterlimit:0;stroke-dasharray:none;stroke-opacity:1"
           id="rect10358-2-83-2"
           width="2.292069"
           height="2.1615934"
           x="27.347635"
           y="5.1838889"
           rx="0.60647917"
           ry="0.57195556"
           transform="matrix(0.94307531,0.33257925,0,1,0,0)" />
        <rect
           style="fill:#96ffff;fill-opacity:1;stroke:#0000ff;stroke-width:0.360408;stroke-linecap:round;stroke-miterlimit:0;stroke-dasharray:none;stroke-opacity:1"
           id="rect10358-8-8-83-6"
           width="2.292069"
           height="2.1615934"
           x="-31.93078"
           y="24.898661"
           rx="0.60647917"
           ry="0.57195556"
           transform="matrix(-0.94307531,0.33257925,0,1,0,0)" />
      </g>
    </g>
    <g
       id="g10488-85-33-6"
       transform="translate(111.41501,155.14174)"
       style="fill:#96ffff;fill-opacity:1;stroke-width:0.35;stroke-dasharray:none">
      <g
         id="g10389-1-0-8-4"
         transform="matrix(1,0,0,-1,-0.00604687,30.656438)"
         style="fill:#96ffff;fill-opacity:1;stroke-width:0.35;stroke-dasharray:none">
        <rect
           style="fill:#96ffff;fill-opacity:1;stroke:#0000ff;stroke-width:0.360408;stroke-linecap:round;stroke-miterlimit:0;stroke-dasharray:none;stroke-opacity:1"
           id="rect10358-0-6-04-9"
           width="2.292069"
           height="2.1615934"
           x="27.347635"
           y="5.1838889"
           rx="0.60647917"
           ry="0.57195556"
           transform="matrix(0.94307531,0.33257925,0,1,0,0)" />
        <rect
           style="fill:#96ffff;fill-opacity:1;stroke:#0000ff;stroke-width:0.360408;stroke-linecap:round;stroke-miterlimit:0;stroke-dasharray:none;stroke-opacity:1"
           id="rect10358-8-3-4-7-5"
           width="2.292069"
           height="2.1615934"
           x="-31.93078"
           y="24.898661"
           rx="0.60647917"
           ry="0.57195556"
           transform="matrix(-0.94307531,0.33257925,0,1,0,0)" />
      </g>
      <rect
         style="fill:#96ffff;fill-opacity:1;stroke:#0000ff;stroke-width:0.438276;stroke-linecap:round;stroke-miterlimit:0;stroke-dasharray:none;stroke-opacity:1"
         id="rect10358-4-6-6-0"
         width="2.4156749"
         height="2.2887909"
         x="37.781296"
         y="-10.358944"
         rx="0.63918513"
         ry="0.60561198"
         transform="matrix(0.93965784,0.34211569,0.9419563,-0.3357355,0,0)" />
      <rect
         style="fill:#96ffff;fill-opacity:1;stroke:#0000ff;stroke-width:0.438276;stroke-linecap:round;stroke-miterlimit:0;stroke-dasharray:none;stroke-opacity:1"
         id="rect10358-4-4-25-89-4"
         width="2.4156749"
         height="2.2887909"
         x="34.594696"
         y="-7.2273736"
         rx="0.63918513"
         ry="0.60561198"
         transform="matrix(0.93965784,0.34211569,0.9419563,-0.3357355,0,0)" />
      <g
         id="g10389-86-0-8"
         style="fill:#96ffff;fill-opacity:1;stroke-width:0.35;stroke-dasharray:none">
        <rect
           style="fill:#96ffff;fill-opacity:1;stroke:#0000ff;stroke-width:0.360408;stroke-linecap:round;stroke-miterlimit:0;stroke-dasharray:none;stroke-opacity:1"
           id="rect10358-2-6-7"
           width="2.292069"
           height="2.1615934"
           x="27.347635"
           y="5.1838889"
           rx="0.60647917"
           ry="0.57195556"
           transform="matrix(0.94307531,0.33257925,0,1,0,0)" />
        <rect
           style="fill:#96ffff;fill-opacity:1;stroke:#0000ff;stroke-width:0.360408;stroke-linecap:round;stroke-miterlimit:0;stroke-dasharray:none;stroke-opacity:1"
           id="rect10358-8-8-87-1"
           width="2.292069"
           height="2.1615934"
           x="-31.93078"
           y="24.898661"
           rx="0.60647917"
           ry="0.57195556"
           transform="matrix(-0.94307531,0.33257925,0,1,0,0)" />
      </g>
    </g>
  </g>
  <g
     id="motion-waves"
     transform="translate(-69.588642,40.733485)"
     style="stroke:#0000ff;stroke-opacity:0">
    <g
       id="g422"
       transform="translate(-0.20180659,0.04682544)"
       style="stroke:#0000ff;stroke-opacity:0">
      <path
         style="fill:none;fill-opacity:1;stroke:#0000ff;stroke-width:1.35;stroke-linecap:round;stroke-miterlimit:0;stroke-dasharray:none;stroke-opacity:0"
         d="m 151.55999,48.081229 c -2.6414,7.177538 0.425,13.696455 3.56954,17.401855 3.36059,3.960067 9.61888,6.329161 15.87384,5.671712"
         id="path12619" />
      <path
         style="fill:none;fill-opacity:1;stroke:#0000ff;stroke-width:1.35;stroke-linecap:round;stroke-miterlimit:0;stroke-dasharray:none;stroke-opacity:0"
         d="m 189.16537,54.182542 c 2.6414,-7.177538 -0.425,-13.696455 -3.56954,-17.401855 -3.36059,-3.960067 -9.61888,-6.329161 -15.87384,-5.671712"
         id="path12619-6" />
    </g>
    <g
       id="g426"
       transform="translate(-0.46639159,0.04682544)"
       style="stroke:#0000ff;stroke-opacity:0">
      <path
         style="fill:none;fill-opacity:1;stroke:#0000ff;stroke-width:1.5;stroke-linecap:round;stroke-miterlimit:0;stroke-dasharray:none;stroke-opacity:0"
         d="m 159.07976,51.763374 c -1.3207,3.588769 0.2125,6.848228 1.78477,8.700928 1.6803,1.980033 4.80944,3.16458 7.93692,2.835856"
         id="path12619-2" />
      <path
         style="fill:none;fill-opacity:1;stroke:#0000ff;stroke-width:1.5;stroke-linecap:round;stroke-miterlimit:0;stroke-dasharray:none;stroke-opacity:0"
         d="m 182.17477,50.500397 c 1.3207,-3.588769 -0.2125,-6.848228 -1.78477,-8.700928 -1.6803,-1.980033 -4.80944,-3.16458 -7.93692,-2.835856"
         id="path12619-2-0" />
    </g>
  </g>
  <g
     id="waves"
     transform="translate(-6.5632943,-0.8133002)"
     style="opacity:0">
    <g
       id="g422-3"
       transform="translate(-63.227143,41.593608)">
      <path
         style="fill:none;fill-opacity:1;stroke:#0000ff;stroke-width:1.35;stroke-linecap:round;stroke-miterlimit:0;stroke-dasharray:none;stroke-opacity:1"
         d="m 151.55999,48.081229 c -2.6414,7.177538 0.425,13.696455 3.56954,17.401855 3.36059,3.960067 9.61888,6.329161 15.87384,5.671712"
         id="path12619-67"
         sodipodi:nodetypes="csc" />
      <path
         style="fill:none;fill-opacity:1;stroke:#0000ff;stroke-width:1.35;stroke-linecap:round;stroke-miterlimit:0;stroke-dasharray:none;stroke-opacity:1"
         d="m 189.16537,54.182542 c 2.6414,-7.177538 -0.425,-13.696455 -3.56954,-17.401855 -3.36059,-3.960067 -9.61888,-6.329161 -15.87384,-5.671712"
         id="path12619-6-5"
         sodipodi:nodetypes="csc" />
    </g>
    <g
       id="g426-3"
       transform="translate(-63.491728,41.593608)">
      <path
         style="fill:none;fill-opacity:1;stroke:#0000ff;stroke-width:1.5;stroke-linecap:round;stroke-miterlimit:0;stroke-dasharray:none;stroke-opacity:1"
         d="m 159.07976,51.763374 c -1.3207,3.588769 0.2125,6.848228 1.78477,8.700928 1.6803,1.980033 4.80944,3.16458 7.93692,2.835856"
         id="path12619-2-5"
         sodipodi:nodetypes="csc" />
      <path
         style="fill:none;fill-opacity:1;stroke:#0000ff;stroke-width:1.5;stroke-linecap:round;stroke-miterlimit:0;stroke-dasharray:none;stroke-opacity:1"
         d="m 182.17477,50.500397 c 1.3207,-3.588769 -0.2125,-6.848228 -1.78477,-8.700928 -1.6803,-1.980033 -4.80944,-3.16458 -7.93692,-2.835856"
         id="path12619-2-0-6"
         sodipodi:nodetypes="csc" />
    </g>
  </g>
</svg>
